<svg width="400" height="850" viewBox="0 0 400 850" fill="none" xmlns="http://www.w3.org/2000/svg">
<rect width="400" height="850" fill="#1a1a1a"/>
<rect x="20" y="40" width="360" height="770" rx="20" fill="#2a2a2a"/>
<!-- Header -->
<rect x="20" y="40" width="360" height="80" rx="20" fill="#2a2a2a"/>
<rect x="40" y="70" width="100" height="20" rx="5" fill="#ef4444"/>
<!-- List Items -->
<rect x="40" y="140" width="320" height="80" rx="10" fill="#333"/>
<circle cx="70" cy="180" r="15" fill="#555"/>
<rect x="100" y="160" width="150" height="15" rx="4" fill="#666"/>
<rect x="100" y="185" width="100" height="10" rx="3" fill="#444"/>

<rect x="40" y="240" width="320" height="80" rx="10" fill="#333"/>
<circle cx="70" cy="280" r="15" fill="#555"/>
<rect x="100" y="260" width="150" height="15" rx="4" fill="#666"/>
<rect x="100" y="285" width="100" height="10" rx="3" fill="#444"/>

<rect x="40" y="340" width="320" height="80" rx="10" fill="#333"/>
<circle cx="70" cy="380" r="15" fill="#555"/>
<rect x="100" y="360" width="150" height="15" rx="4" fill="#666"/>
<rect x="100" y="385" width="100" height="10" rx="3" fill="#444"/>

<rect x="40" y="440" width="320" height="80" rx="10" fill="#333"/>
<circle cx="70" cy="480" r="15" fill="#555"/>
<rect x="100" y="460" width="150" height="15" rx="4" fill="#666"/>
<rect x="100" y="485" width="100" height="10" rx="3" fill="#444"/>

<!-- Bottom Nav -->
<rect x="20" y="750" width="360" height="60" rx="0" fill="#222"/>
<circle cx="90" cy="780" r="10" fill="#666"/>
<circle cx="200" cy="780" r="15" fill="#ef4444"/>
<circle cx="310" cy="780" r="10" fill="#666"/>

<text x="200" y="425" fill="#444" font-family="sans-serif" font-size="24" text-anchor="middle" transform="rotate(-45 200 425)">Mobile App</text>
</svg>
